<?xml version="1.0" encoding="UTF-8"?>
<svg xmlns="http://www.w3.org/2000/svg" viewBox="0 0 1051 443">
  <defs>
    <style>
      .cls-1 {
        letter-spacing: 0em;
      }

      .cls-2 {
        letter-spacing: 0em;
      }

      .cls-3 {
        font-family: MyriadConceptRoman-Regular, 'Myriad Variable Concept';
        font-size: 110px;
        font-variation-settings: 'wght' 400, 'wdth' 100;
      }

      .cls-3, .cls-4 {
        fill: #fff;
      }

      .cls-5 {
        fill: #6d89b6;
      }

      .cls-5, .cls-4 {
        stroke-width: 0px;
      }
    </style>
  </defs>
  <g id="Layer_1" data-name="Layer 1">
    <text/>
    <path class="cls-5" d="m0,0h1051v443H0V0Z"/>
    <text class="cls-3" transform="translate(365.54 255.35) scale(.92 1)"><tspan class="cls-2" x="0" y="0">S</tspan><tspan class="cls-1" x="54.12" y="0">mallSIEM</tspan></text>
  </g>
  <g id="Layer_2" data-name="Layer 2">
    <g>
      <path class="cls-4" d="m349.35,246.94c4.46,5.58,6.22,11.91,6.03,19.02-.13,4.83,0,9.66-.03,14.49-.1,14.73-10.11,25.7-23.63,25.72-35.98.05-71.96.04-107.94,0-13.63-.02-23.64-11-23.71-25.84-.02-4.23.13-8.48-.03-12.7-.3-7.68,1.1-14.73,6.05-20.68-3.07-3.91-5.16-8.28-5.73-13.32-.3-2.61-.25-5.28-.28-7.92-.04-3.97.03-7.94-.02-11.91-.08-6.71,1.95-12.56,6.01-17.72-3.11-3.93-5.25-8.38-5.73-13.49-.35-3.67-.28-7.4-.24-11.1.05-4.75-.19-9.59.5-14.24,1.68-11.37,11.07-19.99,21.65-20.38,3.09-.11,6.19-.05,9.28-.05,33.31,0,66.62-.01,99.93,0,10.93,0,19.8,6.9,22.84,17.82.61,2.19.95,4.53,1.01,6.81.14,5.95.08,11.91.05,17.86-.03,6.35-2.15,11.85-5.97,16.76,3.04,3.86,5.12,8.23,5.7,13.27.29,2.48.25,5.01.28,7.52.04,4.1-.03,8.21.02,12.31.08,6.71-1.95,12.56-6.02,17.74Zm-71.84,42.38c17.83,0,35.67,0,53.5,0,5.76,0,8.86-3.4,8.87-9.71,0-4.96.02-9.92,0-14.89-.03-5.8-3.21-9.34-8.47-9.34-35.79-.02-71.58-.02-107.37,0-5.29,0-8.47,3.52-8.5,9.31-.02,4.9,0,9.79,0,14.69,0,6.68,3.03,9.95,9.2,9.95,17.59,0,35.18,0,52.77,0Zm0-50.83c17.83,0,35.67,0,53.5,0,5.76,0,8.86-3.4,8.87-9.71,0-4.96.02-9.92,0-14.89-.03-5.8-3.21-9.34-8.47-9.34-35.79-.02-71.58-.02-107.37,0-5.29,0-8.47,3.51-8.5,9.31-.02,4.9,0,9.79,0,14.69,0,6.68,3.03,9.95,9.2,9.95,17.59,0,35.18,0,52.77,0Zm.19-84.78c-17.83,0-35.67,0-53.5,0-5.45,0-8.63,3.45-8.66,9.33-.02,5.09-.02,10.19,0,15.28.03,5.79,3.2,9.32,8.48,9.33,35.79.02,71.58.02,107.37,0,5.28,0,8.46-3.54,8.48-9.33.02-4.83,0-9.66,0-14.49,0-6.87-2.97-10.12-9.22-10.13-17.65,0-35.3,0-52.96,0Z"/>
      <path class="cls-4" d="m242.6,280.77c-3.7,0-7.4.03-11.1,0-4.78-.05-8.11-3.53-8.12-8.4-.01-4.89,3.31-8.43,8.06-8.45,7.52-.04,15.04-.04,22.56,0,4.77.02,8.1,3.52,8.12,8.39.01,4.88-3.31,8.4-8.06,8.46-3.82.05-7.64,0-11.46,0Z"/>
      <path class="cls-4" d="m300.98,280.76c-4.33-.02-7.7-3.72-7.69-8.46.01-4.73,3.41-8.4,7.76-8.39,4.33.02,7.7,3.72,7.69,8.46-.01,4.72-3.42,8.4-7.76,8.39Z"/>
      <path class="cls-4" d="m324.34,280.76c-4.34,0-7.73-3.67-7.74-8.4,0-4.74,3.36-8.44,7.7-8.45,4.34,0,7.74,3.67,7.74,8.4,0,4.73-3.37,8.44-7.7,8.45Z"/>
      <path class="cls-4" d="m242.75,229.94c-3.76,0-7.52.04-11.28,0-4.76-.06-8.08-3.56-8.08-8.45,0-4.88,3.33-8.38,8.1-8.41,7.52-.04,15.04-.04,22.56,0,4.76.03,8.08,3.55,8.08,8.44,0,4.88-3.33,8.36-8.1,8.42-3.76.04-7.52,0-11.28,0Z"/>
      <path class="cls-4" d="m308.74,221.51c0,4.73-3.39,8.42-7.73,8.42-4.34,0-7.72-3.7-7.72-8.43,0-4.73,3.39-8.42,7.73-8.42,4.34,0,7.72,3.69,7.72,8.43Z"/>
      <path class="cls-4" d="m324.06,229.92c-4.29-.12-7.57-3.93-7.46-8.7.11-4.69,3.61-8.26,7.98-8.14,4.3.12,7.57,3.93,7.46,8.7-.11,4.68-3.61,8.26-7.98,8.14Z"/>
      <path class="cls-4" d="m242.73,179.11c-3.76,0-7.52.04-11.28,0-4.75-.06-8.07-3.58-8.06-8.47.02-4.88,3.34-8.36,8.12-8.39,7.52-.04,15.04-.04,22.56,0,4.75.03,8.07,3.57,8.06,8.46-.01,4.87-3.35,8.34-8.13,8.39-3.76.04-7.52,0-11.28,0Z"/>
      <path class="cls-4" d="m308.74,170.76c-.03,4.72-3.46,8.37-7.8,8.34-4.33-.04-7.68-3.77-7.64-8.51.03-4.72,3.45-8.37,7.8-8.34,4.33.04,7.68,3.77,7.65,8.51Z"/>
      <path class="cls-4" d="m332.05,170.7c0,4.73-3.41,8.41-7.75,8.4-4.34-.01-7.71-3.71-7.7-8.45,0-4.73,3.4-8.41,7.74-8.4,4.34.01,7.71,3.71,7.7,8.45Z"/>
    </g>
  </g>
</svg>