<?xml version="1.0" encoding="UTF-8"?>
<svg version="1.1" xmlns="http://www.w3.org/2000/svg" width="1051" height="443">
<path d="M0 0 C346.83 0 693.66 0 1051 0 C1051 146.19 1051 292.38 1051 443 C704.17 443 357.34 443 0 443 C0 296.81 0 150.62 0 0 Z " fill="#6D89B6" transform="translate(0,0)"/>
<path d="M0 0 C1.71626083 -0.00788544 1.71626083 -0.00788544 3.4671936 -0.01593018 C7.23437314 -0.02908983 11.00112699 -0.0204042 14.76831055 -0.01025391 C17.39853496 -0.01227621 20.02875882 -0.01518895 22.65898132 -0.01895142 C28.16739468 -0.02439763 33.67568708 -0.01724973 39.18408203 -0.00292969 C45.52683277 0.01337039 51.86929375 0.00812315 58.21203738 -0.0084089 C64.34163985 -0.02373837 70.47111526 -0.02201944 76.60072899 -0.0132637 C79.19572173 -0.01127002 81.79072191 -0.01369155 84.38570595 -0.02070236 C88.02295765 -0.02837121 91.65966364 -0.0166349 95.296875 0 C96.88780724 -0.00910904 96.88780724 -0.00910904 98.51087952 -0.0184021 C109.32819667 0.07266553 118.202706 2.04333242 126.3425293 9.38818359 C127.2687207 10.19449219 127.2687207 10.19449219 128.21362305 11.01708984 C136.3682635 18.57547701 140.20118407 27.72648644 140.62341309 38.7862854 C140.6470636 40.33526905 140.66038646 41.88443583 140.66479492 43.43359375 C140.67968964 44.71615555 140.67968964 44.71615555 140.69488525 46.02462769 C140.72385517 48.82553448 140.73768712 51.62621471 140.7487793 54.42724609 C140.75726143 55.87617815 140.75726143 55.87617815 140.76591492 57.35438156 C140.79579142 62.46803611 140.81431708 67.58157941 140.82299805 72.6953125 C140.83394222 77.93696372 140.88197288 83.17756933 140.93894196 88.41889381 C140.97646634 92.48565507 140.98662021 96.55217139 140.9896698 100.61909103 C140.9956646 102.54934773 141.01152106 104.47960321 141.03804016 106.40968704 C141.24293996 122.47052164 139.25213913 135.20582111 127.6862793 147.33740234 C113.85473764 159.4400013 96.67530292 157.97153977 79.42456055 157.88427734 C76.91501321 157.88443259 74.40546563 157.88592577 71.8959198 157.88868713 C65.99136249 157.89024105 60.08710054 157.87199003 54.18260735 157.84588534 C49.49146011 157.82676368 44.80054855 157.82530054 40.109375 157.83422852 C33.6027751 157.84659538 27.09638122 157.84416982 20.58978844 157.82856941 C18.12319019 157.82407517 15.65658067 157.82370025 13.18998146 157.82763481 C9.7377511 157.83056544 6.28613661 157.81395259 2.83398438 157.79223633 C1.32732208 157.7989888 1.32732208 157.7989888 -0.20977783 157.80587769 C-12.91538646 157.67397952 -21.64024105 154.33593572 -30.63012695 145.43505859 C-35.16671571 140.54209237 -39.33875387 135.21278562 -39.9074707 128.38818359 C-39.8249707 127.72818359 -39.7424707 127.06818359 -39.6574707 126.38818359 C-40.3174707 126.38818359 -40.9774707 126.38818359 -41.6574707 126.38818359 C-41.75040752 114.32215009 -41.82135571 102.25620262 -41.86471939 90.18988323 C-41.88553839 84.58617642 -41.91375185 78.98271564 -41.95922852 73.37915039 C-42.0028894 67.96505651 -42.02665053 62.55119835 -42.03697968 57.13694191 C-42.04433481 55.07780055 -42.0586972 53.01867118 -42.08039093 50.95963097 C-42.28968274 30.25990871 -42.28968274 30.25990871 -37.6574707 21.38818359 C-37.15086914 20.40462891 -36.64426758 19.42107422 -36.12231445 18.40771484 C-27.0738123 5.33251352 -15.52720988 -0.08839645 0 0 Z " fill="#718BB7" transform="translate(224.657470703125,132.61181640625)"/>
<path d="M0 0 C55.44 0 110.88 0 168 0 C168 27.45026178 168 27.45026178 158 38 C152.00170952 43.83617452 143.58237041 47.10400067 135.25839233 47.14717102 C134.30813171 47.15432632 133.35787109 47.16148163 132.3788147 47.16885376 C131.34292206 47.17154266 130.30702942 47.17423157 129.23974609 47.17700195 C128.14331787 47.18357315 127.04688965 47.19014435 125.91723633 47.19691467 C122.28596935 47.21663655 118.65474373 47.22830872 115.0234375 47.23828125 C113.16109404 47.24439454 113.16109404 47.24439454 111.26112747 47.25063133 C105.3654026 47.26933899 99.46969083 47.28390456 93.5739435 47.2922433 C86.78889521 47.30200042 80.00417448 47.32828346 73.2192415 47.36874419 C67.32674338 47.40266561 61.43435406 47.41439843 55.54176712 47.41844749 C53.04361375 47.42330929 50.54546378 47.43491155 48.04737473 47.45348549 C44.54352755 47.47791531 41.04052793 47.47690418 37.53662109 47.4699707 C36.51287384 47.48278076 35.48912659 47.49559082 34.43435669 47.50878906 C24.65066453 47.43854754 16.86015805 44.60986814 9.75 37.84375 C-1.13383678 26.37685053 0 16.54064326 0 0 Z " fill="#708AB7" transform="translate(190,236)"/>
<path d="M0 0 C1.44835991 -0.01506844 1.44835991 -0.01506844 2.92597961 -0.03044128 C3.97383636 -0.03627228 5.02169312 -0.04210327 6.1013031 -0.04811096 C7.21417191 -0.05789474 8.32704071 -0.06767853 9.47363281 -0.07775879 C13.15476801 -0.10765891 16.83586695 -0.12908524 20.51707458 -0.14796448 C22.40739568 -0.15782222 22.40739568 -0.15782222 24.33590508 -0.1678791 C29.63664282 -0.1937541 34.93736627 -0.2172397 40.23814487 -0.23237514 C47.80368244 -0.25423911 55.36850668 -0.2961367 62.93375927 -0.36581272 C68.91543878 -0.41900933 74.89679312 -0.43888568 80.87872124 -0.44757271 C83.41153937 -0.45610741 85.9443455 -0.47487594 88.47700691 -0.50431633 C115.51157813 -0.80161564 115.51157813 -0.80161564 127.63816833 10.09812927 C137.38324068 20.65192131 135.07566833 31.50832489 135.07566833 46.16062927 C80.29566833 46.16062927 25.51566833 46.16062927 -30.92433167 46.16062927 C-30.92433167 19.3620427 -30.92433167 19.3620427 -23.71339417 10.41844177 C-16.53633953 3.34502691 -10.24012737 0.08424171 0 0 Z " fill="#6F89B6" transform="translate(221.92433166503906,139.83937072753906)"/>
<path d="M0 0 C1.71626083 -0.00788544 1.71626083 -0.00788544 3.4671936 -0.01593018 C7.23437314 -0.02908983 11.00112699 -0.0204042 14.76831055 -0.01025391 C17.39853496 -0.01227621 20.02875882 -0.01518895 22.65898132 -0.01895142 C28.16739468 -0.02439763 33.67568708 -0.01724973 39.18408203 -0.00292969 C45.52683277 0.01337039 51.86929375 0.00812315 58.21203738 -0.0084089 C64.34163985 -0.02373837 70.47111526 -0.02201944 76.60072899 -0.0132637 C79.19572173 -0.01127002 81.79072191 -0.01369155 84.38570595 -0.02070236 C88.02295765 -0.02837121 91.65966364 -0.0166349 95.296875 0 C96.88780724 -0.00910904 96.88780724 -0.00910904 98.51087952 -0.0184021 C109.32819667 0.07266553 118.202706 2.04333242 126.3425293 9.38818359 C127.2687207 10.19449219 127.2687207 10.19449219 128.21362305 11.01708984 C136.3682635 18.57547701 140.20118407 27.72648644 140.62341309 38.7862854 C140.6470636 40.33526905 140.66038646 41.88443583 140.66479492 43.43359375 C140.67968964 44.71615555 140.67968964 44.71615555 140.69488525 46.02462769 C140.72385517 48.82553448 140.73768712 51.62621471 140.7487793 54.42724609 C140.75726143 55.87617815 140.75726143 55.87617815 140.76591492 57.35438156 C140.79579142 62.46803611 140.81431708 67.58157941 140.82299805 72.6953125 C140.83394222 77.93696372 140.88197288 83.17756933 140.93894196 88.41889381 C140.97646634 92.48565507 140.98662021 96.55217139 140.9896698 100.61909103 C140.9956646 102.54934773 141.01152106 104.47960321 141.03804016 106.40968704 C141.24293996 122.47052164 139.25213913 135.20582111 127.6862793 147.33740234 C113.85473764 159.4400013 96.67530292 157.97153977 79.42456055 157.88427734 C76.91501321 157.88443259 74.40546563 157.88592577 71.8959198 157.88868713 C65.99136249 157.89024105 60.08710054 157.87199003 54.18260735 157.84588534 C49.49146011 157.82676368 44.80054855 157.82530054 40.109375 157.83422852 C33.6027751 157.84659538 27.09638122 157.84416982 20.58978844 157.82856941 C18.12319019 157.82407517 15.65658067 157.82370025 13.18998146 157.82763481 C9.7377511 157.83056544 6.28613661 157.81395259 2.83398438 157.79223633 C1.32732208 157.7989888 1.32732208 157.7989888 -0.20977783 157.80587769 C-12.91538646 157.67397952 -21.64024105 154.33593572 -30.63012695 145.43505859 C-35.16671571 140.54209237 -39.33875387 135.21278562 -39.9074707 128.38818359 C-39.8249707 127.72818359 -39.7424707 127.06818359 -39.6574707 126.38818359 C-40.3174707 126.38818359 -40.9774707 126.38818359 -41.6574707 126.38818359 C-41.75040752 114.32215009 -41.82135571 102.25620262 -41.86471939 90.18988323 C-41.88553839 84.58617642 -41.91375185 78.98271564 -41.95922852 73.37915039 C-42.0028894 67.96505651 -42.02665053 62.55119835 -42.03697968 57.13694191 C-42.04433481 55.07780055 -42.0586972 53.01867118 -42.08039093 50.95963097 C-42.28968274 30.25990871 -42.28968274 30.25990871 -37.6574707 21.38818359 C-37.15086914 20.40462891 -36.64426758 19.42107422 -36.12231445 18.40771484 C-27.0738123 5.33251352 -15.52720988 -0.08839645 0 0 Z M-21.9699707 13.70068359 C-22.6093457 14.31427734 -23.2487207 14.92787109 -23.9074707 15.56005859 C-35.53368975 27.70530528 -33.6574707 33.69034681 -33.6574707 53.38818359 C21.1225293 53.38818359 75.9025293 53.38818359 132.3425293 53.38818359 C133.39331713 33.01509494 133.39331713 33.01509494 124.3737793 17.27880859 C118.49086787 11.80317565 111.64627327 7.14768085 103.40473938 7.12748718 C101.95204399 7.11685997 101.95204399 7.11685997 100.47000122 7.10601807 C99.41900238 7.10849548 98.36800354 7.1109729 97.28515625 7.11352539 C96.16907486 7.10841446 95.05299347 7.10330353 93.90309143 7.09803772 C90.21227661 7.08413485 86.52164846 7.08509954 82.83081055 7.08740234 C80.26116364 7.08351483 77.69151738 7.07918004 75.12187195 7.07441711 C69.73259122 7.06695268 64.34338267 7.06710857 58.95410156 7.07250977 C52.74489254 7.07853766 46.53591081 7.06626714 40.32674056 7.0449397 C34.33437424 7.02512127 28.34212587 7.02215962 22.34972191 7.02567482 C19.80971939 7.02516271 17.26971316 7.01994581 14.72973061 7.0098629 C11.16860335 6.99746514 7.60799456 7.00431157 4.046875 7.01586914 C3.00599731 7.0082254 1.96511963 7.00058167 0.8927002 6.9927063 C-7.14730334 7.05010223 -15.91197824 7.85760882 -21.9699707 13.70068359 Z M-34.6574707 57.38818359 C-34.6574707 71.57818359 -34.6574707 85.76818359 -34.6574707 100.38818359 C20.7825293 100.38818359 76.2225293 100.38818359 133.3425293 100.38818359 C133.3425293 86.19818359 133.3425293 72.00818359 133.3425293 57.38818359 C77.9025293 57.38818359 22.4625293 57.38818359 -34.6574707 57.38818359 Z M-34.6574707 103.38818359 C-35.1000496 125.5401135 -35.1000496 125.5401135 -24.0637207 142.07568359 C-16.3699134 149.33399237 -7.49209499 150.98779159 2.76806641 150.90576172 C4.41161354 150.91627563 4.41161354 150.91627563 6.08836365 150.92700195 C9.68246387 150.94449547 13.27576588 150.93298841 16.86987305 150.91943359 C19.38513845 150.92213116 21.90040283 150.92601579 24.41566467 150.93103027 C29.67676819 150.93691381 34.93766733 150.92878622 40.19873047 150.90966797 C46.25418125 150.88791506 52.30909283 150.89494864 58.3645305 150.91697359 C64.22292088 150.93741734 70.08110879 150.93512029 75.93951607 150.92344666 C78.41728352 150.92079001 80.89506486 150.92401146 83.37281609 150.93336487 C86.84477328 150.94359581 90.31571547 150.92793619 93.78759766 150.90576172 C94.79832336 150.91385864 95.80904907 150.92195557 96.85040283 150.93029785 C106.87857074 150.8124599 116.46165729 147.91353689 123.89331055 140.93115234 C133.98816962 130.2351106 133.3425293 117.60838968 133.3425293 103.38818359 C77.9025293 103.38818359 22.4625293 103.38818359 -34.6574707 103.38818359 Z " fill="#F5F7FA" transform="translate(224.657470703125,132.61181640625)"/>
<path d="M0 0 C4.29 0 8.58 0 13 0 C16.28933563 6.28843577 19.11312651 12.64314097 21.69335938 19.24707031 C23.79800404 24.59480553 26.17171886 29.78895545 28.62109375 34.98828125 C30.24451128 38.53404588 31.67402772 42.1307406 33.04296875 45.78125 C34.14686647 48.34049042 35.52430709 50.63889135 37 53 C37.44730469 51.91203125 37.89460937 50.8240625 38.35546875 49.703125 C39.61143861 46.6489773 40.86962844 43.59575388 42.12890625 40.54296875 C43.22658734 37.88143772 44.31801489 35.21780739 45.40234375 32.55078125 C47.65240574 27.05142846 50.09341365 21.7392564 52.8046875 16.453125 C54.43100425 13.11545532 55.77894912 9.69244784 57.10546875 6.2265625 C57.95872734 4.10273107 58.97640729 2.04718542 60 0 C63.96 0 67.92 0 72 0 C72 23.1 72 46.2 72 70 C69.36 70 66.72 70 64 70 C63.67 51.85 63.34 33.7 63 15 C57.1970739 27.4024606 57.1970739 27.4024606 52 40 C48.03869926 50.19452396 43.72868529 60.13691381 39 70 C37.35 70 35.7 70 34 70 C30.27174432 62.88940927 27.02874874 55.75863044 24.21875 48.23828125 C21.75160756 41.68295727 19.17289575 35.1555262 15.9375 28.9375 C13.57185926 24.12990754 11.83109242 19.03550414 10 14 C9.67 32.48 9.34 50.96 9 70 C6.03 70 3.06 70 0 70 C0 46.9 0 23.8 0 0 Z " fill="#F7F9FB" transform="translate(782,178)"/>
<path d="M0 0 C3.28768043 2.00409249 6.01885395 4.20164223 8.68359375 6.98046875 C8.96203125 6.11421875 8.96203125 6.11421875 9.24609375 5.23046875 C11.35540854 1.92893256 14.08787076 0.31095448 17.68359375 -1.01953125 C23.60392509 -1.96970788 28.43947264 -1.00148247 33.68359375 1.98046875 C38.36660711 6.79005004 39.91162911 11.19629357 39.91018677 17.883255 C39.8998642 18.62303085 39.88954163 19.3628067 39.87890625 20.125 C39.87607635 20.89478683 39.87324646 21.66457367 39.87033081 22.45768738 C39.85918532 24.902943 39.83409156 27.34782487 39.80859375 29.79296875 C39.79855665 31.4563749 39.78943208 33.11978682 39.78125 34.78320312 C39.75926448 38.84910112 39.72477389 42.91472169 39.68359375 46.98046875 C37.04359375 46.98046875 34.40359375 46.98046875 31.68359375 46.98046875 C31.67424805 45.97669189 31.66490234 44.97291504 31.65527344 43.9387207 C31.61529144 40.20162165 31.54951119 36.46533877 31.47607422 32.72875977 C31.44791189 31.11395786 31.42667375 29.49901932 31.41259766 27.8840332 C31.39110117 25.55739638 31.34442164 23.23239398 31.29296875 20.90625 C31.29174011 20.18834793 31.29051147 19.47044586 31.28924561 18.73078918 C31.14944676 13.907479 30.17731601 11.32547956 26.68359375 7.98046875 C23.82988145 7.15597527 23.82988145 7.15597527 20.74609375 7.29296875 C19.72644531 7.26847656 18.70679688 7.24398437 17.65625 7.21875 C14.24384966 8.09314956 12.89695311 9.45890515 10.73890686 12.1884613 C8.94919595 15.22753591 8.95707237 18.36123179 8.9765625 21.78515625 C8.96144119 22.50913605 8.94631989 23.23311584 8.93074036 23.97903442 C8.88805331 26.2715007 8.8790449 28.56264561 8.87109375 30.85546875 C8.84793429 32.41800341 8.82256593 33.98050699 8.79492188 35.54296875 C8.73225871 39.35558455 8.69977509 43.16738386 8.68359375 46.98046875 C6.04359375 46.98046875 3.40359375 46.98046875 0.68359375 46.98046875 C0.66377441 46.01222168 0.64395508 45.04397461 0.62353516 44.04638672 C0.54713157 40.43431773 0.4584695 36.82263343 0.36621094 33.2109375 C0.32806414 31.65144477 0.29318693 30.09186835 0.26171875 28.53222656 C0.2157555 26.28290001 0.15781567 24.0341426 0.09765625 21.78515625 C0.08610504 21.09428925 0.07455383 20.40342224 0.06265259 19.69161987 C-0.06477704 15.45737802 -0.64928525 11.88572376 -2.31640625 7.98046875 C-5.53796708 6.36968834 -8.82309062 6.52510172 -12.31640625 6.98046875 C-16.64236598 9.02101579 -18.89925021 11.12323487 -20.69848633 15.57055664 C-22.14280403 21.20345272 -21.90669107 27.13331565 -22.00390625 32.91796875 C-22.03712638 34.283235 -22.07162029 35.64847088 -22.10742188 37.01367188 C-22.18959601 40.33585461 -22.25884993 43.65778345 -22.31640625 46.98046875 C-24.95640625 46.98046875 -27.59640625 46.98046875 -30.31640625 46.98046875 C-30.31640625 31.47046875 -30.31640625 15.96046875 -30.31640625 -0.01953125 C-28.00640625 -0.01953125 -25.69640625 -0.01953125 -23.31640625 -0.01953125 C-22.98640625 2.29046875 -22.65640625 4.60046875 -22.31640625 6.98046875 C-21.78015625 6.21734375 -21.24390625 5.45421875 -20.69140625 4.66796875 C-15.36343232 -1.36105439 -7.48479938 -3.29432148 0 0 Z " fill="#F8F9FB" transform="translate(489.31640625,201.01953125)"/>
<path d="M0 0 C4.68430173 2.86793984 7.36957171 5.88903683 9.18701172 11.09790039 C10.10531129 15.05969979 10.29043898 18.4965968 10.2578125 22.55859375 C10.2549826 23.25896255 10.25215271 23.95933136 10.24923706 24.68092346 C10.23814885 26.8916317 10.21306703 29.10191671 10.1875 31.3125 C10.17745546 32.82225972 10.1683322 34.33202588 10.16015625 35.84179688 C10.13824714 39.51966597 10.10379758 43.1972916 10.0625 46.875 C7.4225 46.875 4.7825 46.875 2.0625 46.875 C1.5675 44.4 1.5675 44.4 1.0625 41.875 C-0.05125 42.803125 -0.05125 42.803125 -1.1875 43.75 C-6.96285824 48.21277682 -11.730777 48.70183366 -18.9375 47.875 C-23.71136779 46.25748069 -27.57222797 43.32171142 -29.9375 38.875 C-30.80648838 33.51350567 -30.66771397 29.30934886 -28.1875 24.4375 C-21.96878437 18.44460366 -12.90924366 17.55262205 -4.6875 17.625 C-2.4368465 17.68827138 -0.1863247 17.76440206 2.0625 17.875 C1.45388653 11.87824779 1.45388653 11.87824779 -1.9375 7.3125 C-9.14245081 6.26177801 -14.47427795 6.18173026 -20.9375 9.875 C-22.2575 9.875 -23.5775 9.875 -24.9375 9.875 C-26.6875 7.875 -26.6875 7.875 -27.9375 5.875 C-26.50292672 4.8915504 -25.06472594 3.91339079 -23.625 2.9375 C-22.82449219 2.39222656 -22.02398438 1.84695312 -21.19921875 1.28515625 C-15.29564317 -2.39565685 -6.4715911 -2.42863242 0 0 Z " fill="#F7F9FB" transform="translate(570.9375,201.125)"/>
<path d="M0 0 C14.52 0 29.04 0 44 0 C44 2.31 44 4.62 44 7 C32.12 7 20.24 7 8 7 C8 14.59 8 22.18 8 30 C18.89 30 29.78 30 41 30 C41 32.31 41 34.62 41 37 C30.11 37 19.22 37 8 37 C8 45.25 8 53.5 8 62 C20.54 62 33.08 62 46 62 C46 64.64 46 67.28 46 70 C30.82 70 15.64 70 0 70 C0 46.9 0 23.8 0 0 Z " fill="#FCFCFD" transform="translate(724,178)"/>
<path d="M0 0 C-0.70859035 3.19859011 -1.23313636 5.05294781 -4 7 C-6.65107876 6.82326142 -8.05798214 5.96084453 -10.26171875 4.47265625 C-14.95138608 1.95053844 -19.81264911 2.34106624 -25 3 C-27.85013193 4.18934077 -29.80818149 5.80818149 -32 8 C-32.19989763 9.99990516 -32.19989763 9.99990516 -32.1875 12.3125 C-32.20876953 13.48232422 -32.20876953 13.48232422 -32.23046875 14.67578125 C-31.95792018 17.42436432 -31.67186924 18.77847512 -30 21 C-27.64732992 22.1705116 -25.45437441 23.11451462 -23 24 C-21.7728125 24.47179687 -20.545625 24.94359375 -19.28125 25.4296875 C-18.66217773 25.66502197 -18.04310547 25.90035645 -17.40527344 26.14282227 C-1.89847823 32.10193026 -1.89847823 32.10193026 2 40 C2.77776971 45.53547811 3.06793305 51.80021296 0.5625 56.9375 C-4.48598164 62.97105123 -11.32350202 67.46356119 -19.2734375 68.21484375 C-27.76995691 68.54163296 -35.39301918 66.45075918 -42 61 C-43.1875 59.0625 -43.1875 59.0625 -43 57 C-40.6875 54.25 -40.6875 54.25 -38 52 C-37.34 52 -36.68 52 -36 52 C-35.401875 52.78375 -34.80375 53.5675 -34.1875 54.375 C-31.25854275 57.88974871 -29.21790583 58.75482334 -24.703125 59.25390625 C-18.55644499 59.54261395 -14.97717981 58.62919361 -10 55 C-7.32056386 50.9808458 -7.31436876 47.72228516 -8 43 C-11.70476546 37.58534279 -18.35998114 35.77388267 -24.4375 34.125 C-31.46077542 31.99721952 -36.60785713 29.84577588 -40.4375 23.375 C-43.10494072 17.30427284 -42.946766 10.840298 -40.875 4.625 C-30.48547581 -9.92033386 -13.87649935 -8.53938422 0 0 Z " fill="#F8F9FB" transform="translate(445,182)"/>
<path d="M0 0 C3 2.1875 3 2.1875 5 4 C3.63016497 7.16115776 3.0109362 7.9927092 0 10 C-2.62762152 9.73723785 -4.06172298 8.95842494 -6.26171875 7.4765625 C-10.95628157 4.94511493 -15.80516645 5.35415583 -21 6 C-23.68244303 7.02860597 -24.86417312 7.97962323 -27 10 C-28.20901009 13.62703026 -28.78660475 17.24017363 -28 21 C-25.38998717 24.25805701 -23.06829078 25.59595284 -19.125 26.8125 C-14.44198964 28.41342144 -10.0063904 30.27502434 -5.5625 32.4375 C-4.40878906 32.99308594 -3.25507812 33.54867187 -2.06640625 34.12109375 C1.73084423 36.44781666 4.01442218 39.02884436 6 43 C6.93462979 54.95100391 6.93462979 54.95100391 4.375 60.5625 C-2.42216841 67.53854126 -8.60583741 70.97464469 -18.5625 71.375 C-27.06046993 71.01529757 -33.03030433 67.93130534 -39 62 C-37.63016497 58.83884224 -37.0109362 58.0072908 -34 56 C-30.13530716 56.25764619 -27.86981252 58.58331577 -25 61 C-21.28466784 62.85766608 -17.05428058 62.44845555 -13 62 C-8.96690141 60.5160548 -6.41416964 58.62125446 -4 55 C-3.57115856 52.62713728 -3.57115856 52.62713728 -3.5625 50.0625 C-3.52253906 49.20785156 -3.48257813 48.35320312 -3.44140625 47.47265625 C-3.81811767 44.81749954 -3.81811767 44.81749954 -6.07421875 42.83203125 C-9.40539426 40.746155 -12.47816338 39.71929828 -16.25 38.625 C-23.75980965 36.29058577 -30.79469698 33.47572543 -35.5 26.875 C-38.25388277 21.59672468 -39.02511796 16.60026368 -37.3515625 10.72265625 C-35.14012868 5.04286255 -32.44845783 1.75900631 -27 -1 C-18.24531314 -4.60487106 -8.41611126 -4.13423009 0 0 Z " fill="#F8FAFB" transform="translate(678,179)"/>
<path d="M0 0 C2.97 0 5.94 0 9 0 C9 23.43 9 46.86 9 71 C6.03 71 3.06 71 0 71 C0 47.57 0 24.14 0 0 Z " fill="#F2F4F8" transform="translate(698,177)"/>
<path d="M0 0 C2.64 0 5.28 0 8 0 C8 25.08 8 50.16 8 76 C5.36 76 2.72 76 0 76 C0 50.92 0 25.84 0 0 Z " fill="#F2F4F8" transform="translate(619,172)"/>
<path d="M0 0 C2.64 0 5.28 0 8 0 C8 24.75 8 49.5 8 75 C5.36 75 2.72 75 0 75 C0 50.25 0 25.5 0 0 Z " fill="#FAFBFC" transform="translate(595,173)"/>
<path d="M0 0 C1.89492188 0.01353516 1.89492188 0.01353516 3.828125 0.02734375 C4.79234375 0.03894531 5.7565625 0.05054688 6.75 0.0625 C6.89842121 6.66333815 6.02517279 10.27357852 1.8125 15.4375 C-2.92361575 17.95054101 -8.00690438 18.04332669 -13.25 17.0625 C-16.40764389 14.60302863 -17.14775948 13.62482284 -17.875 9.625 C-17.25 6.0625 -17.25 6.0625 -14.5 3.1875 C-9.51400832 -0.07257149 -5.93792502 -0.05498079 0 0 Z " fill="#768FBA" transform="translate(566.25,224.9375)"/>
<path d="M0 0 C2.4375 1 2.4375 1 4 3 C4.56153595 7.42209561 4.79893062 9.72171101 2.4375 13.5 C-0.97532932 15.60020266 -3.06688873 15.63210717 -7 15 C-9.96135546 12.41830549 -10.86756104 10.81118865 -11.5 6.9375 C-11 4 -11 4 -9.4375 1.625 C-6.08716465 -0.6085569 -3.9518567 -0.49398209 0 0 Z " fill="#F1F4F8" transform="translate(253,157)"/>
<path d="M0 0 C2.4375 1 2.4375 1 4 3 C4.45364856 6.1755399 4.68938436 7.98847886 4 11 C1.9375 13.5625 1.9375 13.5625 -1 15 C-4.8137751 15 -7.02424548 14.84985071 -9.9375 12.3125 C-11.33817538 9.26397123 -11.4842732 7.32073048 -11 4 C-8.04627097 -0.48966812 -5.14336369 -0.64292046 0 0 Z " fill="#EFF2F7" transform="translate(253,250)"/>
<path d="M0 0 C1.9375 1.125 1.9375 1.125 3 3 C3.50030235 6.93094707 3.5996142 9.1005787 1.375 12.4375 C-1.75683492 14.49791771 -3.31544773 14.6767545 -7 14 C-10.35694984 11.51877621 -11.78441871 10.05634831 -12.625 5.9375 C-12 3 -12 3 -9.9375 0.5625 C-6.10453656 -1.47631034 -4.13392844 -1.14831346 0 0 Z " fill="#EDF1F6" transform="translate(254,204)"/>
<path d="M0 0 C2.5625 2.125 2.5625 2.125 4 5 C4 8.63075827 3.41176127 10.42048414 1.3125 13.375 C-1.73171415 15.51417751 -3.35097722 15.60817046 -7 15 C-9.375 13.5 -9.375 13.5 -11 11 C-11.6293407 7.48559179 -11.63147635 4.2629527 -10 1 C-6.72212436 -0.63893782 -3.51817423 -0.74884833 0 0 Z " fill="#EFF2F7" transform="translate(236,157)"/>
<path d="M0 0 C2.5 1.625 2.5 1.625 4 4 C4.5625 6.9375 4.5625 6.9375 4 10 C1.51877621 13.35694984 0.05634831 14.78441871 -4.0625 15.625 C-7 15 -7 15 -9.375 12.9375 C-11.385629 9.30290142 -11.53110151 7.0970688 -11 3 C-8.83051992 -1.20336765 -4.17489866 -0.74761767 0 0 Z " fill="#EFF2F7" transform="translate(218,157)"/>
<path d="M0 0 C2.5 1.625 2.5 1.625 4 4 C4 7.78814147 3.8367392 10.03929943 1.3125 12.9375 C-1.73602877 14.33817538 -3.67926952 14.4842732 -7 14 C-9.375 12.5 -9.375 12.5 -11 10 C-11.58428517 7.0368395 -11.39344818 5.09840439 -11 2 C-7.94485197 -2.0327954 -4.5477161 -1.21813824 0 0 Z " fill="#EFF2F7" transform="translate(236,204)"/>
<path d="M0 0 C3 2.125 3 2.125 5 5 C5.16299417 8.99335725 4.47797727 10.46739675 1.8125 13.4375 C-1 15 -1 15 -4.125 14.9375 C-8.55190311 13.49394464 -8.55190311 13.49394464 -10 11 C-10.53758847 7.42354336 -10.6567088 4.23615773 -8.9375 1 C-5.76942356 -0.63513623 -3.49884179 -0.48259887 0 0 Z " fill="#F1F4F8" transform="translate(235,250)"/>
<path d="M0 0 C3.06835351 2.2849441 4.66652705 3.78737109 5.6875 7.5 C4.59516012 11.47214501 2.41006305 12.85292326 -1 15 C-4.55829852 15.06977056 -6.18507783 14.70626588 -8.875 12.375 C-10.44081436 9.0693919 -10.39385329 6.61032183 -10 3 C-7.77517635 -1.05703136 -4.20307548 -0.57973455 0 0 Z " fill="#F0F3F7" transform="translate(217,250)"/>
<path d="M0 0 C3.42641601 1.16643949 4.94029949 1.96425523 6.9375 5 C6.9375 8.78814147 6.7742392 11.03929943 4.25 13.9375 C1.20147123 15.33817538 -0.74176952 15.4842732 -4.0625 15 C-6.4375 13.4375 -6.4375 13.4375 -8.0625 11 C-8.625 7.5 -8.625 7.5 -8.0625 4 C-5.42319379 0.89493388 -4.09839632 0 0 0 Z " fill="#F1F3F8" transform="translate(215.0625,203)"/>
<path d="M0 0 C0.33 0 0.66 0 1 0 C1 18.81 1 37.62 1 57 C0.67 57 0.34 57 0 57 C-0.33 40.5 -0.66 24 -1 7 C-1.99 7.495 -1.99 7.495 -3 8 C-1.125 2.25 -1.125 2.25 0 0 Z " fill="#7F97BE" transform="translate(845,191)"/>
<path d="M0 0 C2.625 0.375 2.625 0.375 5 1 C5.625 3.375 5.625 3.375 6 6 C4 8 4 8 1.4375 8.1875 C-1 8 -1 8 -2 7 C-2.1875 4.5625 -2.1875 4.5625 -2 2 C-1.34 1.34 -0.68 0.68 0 0 Z " fill="#7E96BE" transform="translate(248,253)"/>
<path d="M0 0 C2.625 0.375 2.625 0.375 5 1 C5.625 3.375 5.625 3.375 6 6 C4 8 4 8 1.4375 8.1875 C-1 8 -1 8 -2 7 C-2.1875 4.5625 -2.1875 4.5625 -2 2 C-1.34 1.34 -0.68 0.68 0 0 Z " fill="#7E96BE" transform="translate(248,160)"/>
<path d="M0 0 C4.70588235 0.70588235 4.70588235 0.70588235 6 2 C6.125 4.5 6.125 4.5 6 7 C5 8 5 8 2.5625 8.1875 C0 8 0 8 -2 6 C-1.44444444 1.44444444 -1.44444444 1.44444444 0 0 Z " fill="#7E96BE" transform="translate(212,160)"/>
<path d="M0 0 C2.625 0.375 2.625 0.375 5 1 C5.625 3.375 5.625 3.375 6 6 C4 8 4 8 1.375 8.125 C0.59125 8.08375 -0.1925 8.0425 -1 8 C-1.625 5.125 -1.625 5.125 -2 2 C-1.34 1.34 -0.68 0.68 0 0 Z " fill="#7D95BD" transform="translate(230,253)"/>
<path d="M0 0 C2.625 0.375 2.625 0.375 5 1 C5.625 3.375 5.625 3.375 6 6 C5.34 6.66 4.68 7.32 4 8 C1.375 7.625 1.375 7.625 -1 7 C-1.625 4.625 -1.625 4.625 -2 2 C-1.34 1.34 -0.68 0.68 0 0 Z " fill="#7D95BD" transform="translate(212,253)"/>
<path d="M0 0 C0.625 2.375 0.625 2.375 1 5 C0.34 5.66 -0.32 6.32 -1 7 C-5.55555556 6.44444444 -5.55555556 6.44444444 -7 5 C-7.04063832 3.33382885 -7.042721 1.66611905 -7 0 C-3.86650268 -1.04449911 -3.01031744 -0.93423645 0 0 Z " fill="#7D95BD" transform="translate(235,208)"/>
<path d="M0 0 C2.625 0.375 2.625 0.375 5 1 C5.625 3.375 5.625 3.375 6 6 C5.34 6.66 4.68 7.32 4 8 C1.375 7.625 1.375 7.625 -1 7 C-1.625 4.625 -1.625 4.625 -2 2 C-1.34 1.34 -0.68 0.68 0 0 Z " fill="#7D95BD" transform="translate(212,207)"/>
<path d="M0 0 C2.625 0.375 2.625 0.375 5 1 C5.625 3.375 5.625 3.375 6 6 C5.34 6.66 4.68 7.32 4 8 C1.375 7.625 1.375 7.625 -1 7 C-1.625 4.625 -1.625 4.625 -2 2 C-1.34 1.34 -0.68 0.68 0 0 Z " fill="#7B94BC" transform="translate(230,160)"/>
<path d="M0 0 C2.5 0.125 2.5 0.125 3.5 1.125 C3.21269945 3.46444736 2.88063221 5.7989143 2.5 8.125 C-2.375 7.25 -2.375 7.25 -3.5 6.125 C-3.625 3.625 -3.625 3.625 -3.5 1.125 C-2.5 0.125 -2.5 0.125 0 0 Z " fill="#7992BB" transform="translate(249.5,206.875)"/>
<path d="M0 0 C3 1 3 1 5 3 C4.071875 3.4021875 4.071875 3.4021875 3.125 3.8125 C0.7004767 4.95556848 0.7004767 4.95556848 -1 8 C-1.33 7.34 -1.66 6.68 -2 6 C-2.66 7.32 -3.32 8.64 -4 10 C-4.25 7.25 -4.25 7.25 -4 4 C-2 1.625 -2 1.625 0 0 Z " fill="#E6EAF2" transform="translate(246,157)"/>
<path d="M0 0 C0.66 0.33 1.32 0.66 2 1 C-0.64 3.64 -3.28 6.28 -6 9 C-6.33 8.34 -6.66 7.68 -7 7 C-4.78071806 4.09197539 -3.07030857 2.04687238 0 0 Z " fill="#E2E7F0" transform="translate(649,179)"/>
</svg>
